<?xml version="1.0" encoding="UTF-8" standalone="no"?>
<svg
   width="128"
   height="128"
   viewBox="0 0 128 128"
   version="1.1"
   xml:space="preserve"
   style="clip-rule:evenodd;fill-rule:evenodd;stroke-linecap:round;stroke-linejoin:round"
   id="svg65"
   sodipodi:docname="com.github.malothebault.trivia.svg"
   inkscape:version="1.1.2 (0a00cf5339, 2022-02-04)"
   inkscape:export-filename="/home/malothebault/Documents/GitHub/trivia/data/assets/logo.png"
   inkscape:export-xdpi="96"
   inkscape:export-ydpi="96"
   xmlns:inkscape="http://www.inkscape.org/namespaces/inkscape"
   xmlns:sodipodi="http://sodipodi.sourceforge.net/DTD/sodipodi-0.dtd"
   xmlns:xlink="http://www.w3.org/1999/xlink"
   xmlns="http://www.w3.org/2000/svg"
   xmlns:svg="http://www.w3.org/2000/svg"><sodipodi:namedview
   id="namedview67"
   pagecolor="#ffffff"
   bordercolor="#666666"
   borderopacity="1.0"
   inkscape:pageshadow="2"
   inkscape:pageopacity="0.0"
   inkscape:pagecheckerboard="true"
   showgrid="true"
   inkscape:snap-global="false"
   inkscape:snap-bbox="true"
   inkscape:snap-bbox-edge-midpoints="true"
   inkscape:snap-bbox-midpoints="false"
   inkscape:zoom="2.8284271"
   inkscape:cx="19.26866"
   inkscape:cy="59.220193"
   inkscape:window-width="1600"
   inkscape:window-height="839"
   inkscape:window-x="0"
   inkscape:window-y="30"
   inkscape:window-maximized="1"
   inkscape:current-layer="layer1"
   showguides="true"
   inkscape:guide-bbox="true"
   inkscape:object-paths="false"
   inkscape:snap-intersection-paths="false"
   inkscape:snap-midpoints="true"
   inkscape:snap-page="true"
   inkscape:snap-grids="true"
   inkscape:lockguides="true"
   viewbox-height="128"
   viewbox-y="0"
   inkscape:snap-object-midpoints="true"
   inkscape:snap-center="true"
   inkscape:snap-smooth-nodes="false"
   inkscape:bbox-nodes="true"
   inkscape:bbox-paths="true"
   inkscape:object-nodes="false"><sodipodi:guide
     position="64,64"
     orientation="0,1"
     id="guide909"
     inkscape:locked="true"
     inkscape:label=""
     inkscape:color="rgb(0,0,255)" /><sodipodi:guide
     position="64,64"
     orientation="-1,0"
     id="guide911"
     inkscape:locked="true"
     inkscape:label=""
     inkscape:color="rgb(0,0,255)" /><inkscape:grid
     type="xygrid"
     id="grid917" /><sodipodi:guide
     position="64,106"
     orientation="0,1"
     id="guide697"
     inkscape:locked="true"
     inkscape:label=""
     inkscape:color="rgb(0,0,255)" /><sodipodi:guide
     position="64,8"
     orientation="0,1"
     id="guide3077"
     inkscape:label=""
     inkscape:locked="true"
     inkscape:color="rgb(0,0,255)" /><sodipodi:guide
     position="64,57"
     orientation="0,1"
     id="guide2065"
     inkscape:label=""
     inkscape:locked="true"
     inkscape:color="rgb(0,0,255)" /></sodipodi:namedview>
    
    
    
    
    
    
    
    
    
    <defs
   id="defs63"><rect
   x="30"
   y="25"
   width="70"
   height="75"
   id="rect5349" /><rect
   x="34.488838"
   y="29.040291"
   width="88.492226"
   height="208.70229"
   id="rect9568" />
        <radialGradient
   id="_Radial1"
   cx="0"
   cy="0"
   r="1"
   gradientUnits="userSpaceOnUse"
   gradientTransform="matrix(55,0,0,6,64,118)"><stop
     offset="0%"
     style="stop-color:black;stop-opacity:0.2"
     id="stop18" /><stop
     offset="100%"
     style="stop-color:black;stop-opacity:0"
     id="stop20" /></radialGradient>
        <radialGradient
   id="_Radial2"
   cx="0"
   cy="0"
   r="1"
   gradientUnits="userSpaceOnUse"
   gradientTransform="matrix(5.00946,0,0,3.5,37.993,43.5)"><stop
     offset="0%"
     style="stop-color:rgb(24,24,24);stop-opacity:1"
     id="stop23" /><stop
     offset="100%"
     style="stop-color:rgb(24,24,24);stop-opacity:0"
     id="stop25" /></radialGradient>
        <radialGradient
   id="_Radial3"
   cx="0"
   cy="0"
   r="1"
   gradientUnits="userSpaceOnUse"
   gradientTransform="matrix(5.00946,0,0,3.5,-10.007,-43.5)"><stop
     offset="0%"
     style="stop-color:rgb(24,24,24);stop-opacity:1"
     id="stop28" /><stop
     offset="100%"
     style="stop-color:rgb(24,24,24);stop-opacity:0"
     id="stop30" /></radialGradient>
        <linearGradient
   id="_Linear4"
   x1="0"
   y1="0"
   x2="1"
   y2="0"
   gradientUnits="userSpaceOnUse"
   gradientTransform="matrix(0,-7.02829,7.02829,0,25.0581,47.0277)"><stop
     offset="0%"
     style="stop-color:rgb(24,24,24);stop-opacity:0"
     id="stop33" /><stop
     offset="50%"
     style="stop-color:rgb(24,24,24);stop-opacity:1"
     id="stop35" /><stop
     offset="100%"
     style="stop-color:rgb(24,24,24);stop-opacity:0"
     id="stop37" /></linearGradient>
        <radialGradient
   id="_Radial5"
   cx="0"
   cy="0"
   r="1"
   gradientUnits="userSpaceOnUse"
   gradientTransform="matrix(0,317.852,-390.221,0,66.1949,-39.2709)"><stop
     offset="0%"
     style="stop-color:rgb(104,87,84);stop-opacity:1"
     id="stop40" /><stop
     offset="26%"
     style="stop-color:rgb(104,87,84);stop-opacity:1"
     id="stop42" /><stop
     offset="70%"
     style="stop-color:rgb(89,76,74);stop-opacity:1"
     id="stop44" /><stop
     offset="100%"
     style="stop-color:rgb(89,76,74);stop-opacity:1"
     id="stop46" /></radialGradient>
        <linearGradient
   id="_Linear6"
   x1="0"
   y1="0"
   x2="1"
   y2="0"
   gradientUnits="userSpaceOnUse"
   gradientTransform="matrix(0,103.73,-103.73,0,64,15.1351)"><stop
     offset="0%"
     style="stop-color:white;stop-opacity:0.3"
     id="stop49" /><stop
     offset="6%"
     style="stop-color:white;stop-opacity:0.0705882"
     id="stop51" /><stop
     offset="95%"
     style="stop-color:white;stop-opacity:0.0470588"
     id="stop53" /><stop
     offset="100%"
     style="stop-color:white;stop-opacity:0.117647"
     id="stop55" /></linearGradient>
        <linearGradient
   id="_Linear7"
   x1="0"
   y1="0"
   x2="1"
   y2="0"
   gradientUnits="userSpaceOnUse"
   gradientTransform="matrix(0,-11.1846,11.1846,0,75.213,77.7963)"><stop
     offset="0%"
     style="stop-color:black;stop-opacity:0.05"
     id="stop58" /><stop
     offset="100%"
     style="stop-color:black;stop-opacity:0"
     id="stop60" /></linearGradient>
    <linearGradient
   id="linearGradient3820-7-2-8-6"><stop
     id="stop3822-2-6-5-0"
     style="stop-color:#3d3d3d;stop-opacity:1"
     offset="0" /><stop
     id="stop3864-8-7-4-1"
     style="stop-color:#686868;stop-opacity:0.49803922"
     offset="0.5" /><stop
     id="stop3824-1-2-6-7"
     style="stop-color:#686868;stop-opacity:0"
     offset="1" /></linearGradient><linearGradient
   id="linearGradient2867-449-88-871-390-598-476-591-434-148-57-177-3-8"><stop
     id="stop3750-8-9"
     style="stop-color:#8cd5ff;stop-opacity:1"
     offset="0" /><stop
     id="stop3752-3-2"
     style="stop-color:#64baff;stop-opacity:1"
     offset="0.26238" /><stop
     id="stop3754-7-2"
     style="stop-color:#3689e6;stop-opacity:1"
     offset="0.704952" /><stop
     id="stop3756-9-3"
     style="stop-color:#0d52bf;stop-opacity:1"
     offset="1" /></linearGradient><radialGradient
   xlink:href="#linearGradient3820-7-2-8-6"
   id="radialGradient3163"
   gradientUnits="userSpaceOnUse"
   gradientTransform="matrix(0.35628033,0,0,0.11131066,-3.3771292,35.301638)"
   cx="99.157013"
   cy="186.17059"
   fx="99.157013"
   fy="186.17059"
   r="62.769119" /><radialGradient
   xlink:href="#linearGradient2867-449-88-871-390-598-476-591-434-148-57-177-3-8"
   id="radialGradient3197"
   gradientUnits="userSpaceOnUse"
   gradientTransform="matrix(0,6.3385076,-6.7053845,-1.7252442e-7,-8.3407715,-29.774841)"
   cx="3.9722471"
   cy="8.4497671"
   fx="3.9722471"
   fy="8.4497671"
   r="19.99999" /><linearGradient
   id="linearGradient4246"><stop
     offset="0"
     style="stop-color:#ffffff;stop-opacity:1"
     id="stop4248" /><stop
     offset="0.23521248"
     style="stop-color:#ffffff;stop-opacity:0.23529412"
     id="stop4250" /><stop
     offset="0.76404774"
     style="stop-color:#ffffff;stop-opacity:0.15686275"
     id="stop4252" /><stop
     offset="1"
     style="stop-color:#ffffff;stop-opacity:0.39215687"
     id="stop4254" /></linearGradient><linearGradient
   gradientTransform="matrix(2.7567564,0,0,2.7567564,-217.72034,-18.59183)"
   gradientUnits="userSpaceOnUse"
   xlink:href="#linearGradient4246"
   id="linearGradient5267"
   y2="44.00914"
   x2="71.204407"
   y1="6.8949885"
   x1="71.204407" /><radialGradient
   gradientTransform="matrix(0,9.9313773,-7.8452509,-1.1276038e-7,46.476885,-13.086122)"
   gradientUnits="userSpaceOnUse"
   xlink:href="#linearGradient4223"
   id="radialGradient3126-7-25-24"
   fy="8.449769"
   fx="0.66680855"
   r="19.99999"
   cy="8.449769"
   cx="-1.2645766" /><linearGradient
   id="linearGradient4526"
   inkscape:swatch="solid"><stop
     style="stop-color:#ffffff;stop-opacity:1;"
     offset="0"
     id="stop4528" /></linearGradient><linearGradient
   id="linearGradient4223"><stop
     offset="0"
     style="stop-color:#d1ff82;stop-opacity:1"
     id="stop4225" /><stop
     offset="0.26238"
     style="stop-color:#9bdb4d;stop-opacity:1"
     id="stop4227" /><stop
     offset="0.66093999"
     style="stop-color:#68b723;stop-opacity:1"
     id="stop4229" /><stop
     offset="1"
     style="stop-color:#3a9104;stop-opacity:1"
     id="stop4231" /></linearGradient><rect
   x="30"
   y="25"
   width="70"
   height="75"
   id="rect19323" /><rect
   x="30"
   y="25"
   width="70"
   height="75"
   id="rect21639" /><rect
   x="30"
   y="25"
   width="70"
   height="75"
   id="rect21645" /><rect
   x="30"
   y="25"
   width="70"
   height="75"
   id="rect21654" /><filter
   style="color-interpolation-filters:sRGB"
   inkscape:label="Drop Shadow"
   id="filter25179"
   x="-0.14399999"
   y="-0.12"
   width="1.288"
   height="1.24"><feFlood
     flood-opacity="0.803922"
     flood-color="rgb(0,0,0)"
     result="flood"
     id="feFlood25169" /><feComposite
     in="flood"
     in2="SourceGraphic"
     operator="in"
     result="composite1"
     id="feComposite25171" /><feGaussianBlur
     in="composite1"
     stdDeviation="3"
     result="blur"
     id="feGaussianBlur25173" /><feOffset
     dx="0"
     dy="-0"
     result="offset"
     id="feOffset25175" /><feComposite
     in="offset"
     in2="offset"
     operator="atop"
     result="composite2"
     id="feComposite25177" /></filter></defs>
<g
   inkscape:groupmode="layer"
   id="layer1"
   inkscape:label="web"
   style="display:inline"><g
     id="g3159"
     transform="matrix(2.101259,0,0,2.101259,-4.5227381,-6.6190237)"><rect
       style="fill:#550527;fill-opacity:1;stroke-width:2;stroke-linecap:round;stroke-linejoin:round"
       id="rect2852"
       width="22.983444"
       height="28.826254"
       x="21.82695"
       y="17.774343"
       rx="5.0812802" /><path
       style="fill:url(#radialGradient3163);fill-opacity:1;stroke:none;stroke-width:0.518648"
       id="path3818-0-5-0"
       d="m 54.313963,56.024402 a 22.363402,6.9868702 0 1 1 -44.7268014,0 22.363402,6.9868702 0 1 1 44.7268014,0 z" /><path
       id="rect20891"
       style="fill:#550527;fill-opacity:1;stroke-width:1.0373;stroke-linecap:round;stroke-linejoin:round"
       d="m 19.670151,7.3555586 c -1.22765,0.015668 -2.309799,0.8884981 -2.54867,2.1434756 L 9.8634469,47.628786 c -0.2729945,1.43426 0.6626181,2.808504 2.0968781,3.081498 l 38.129752,7.25702 c 1.434259,0.272996 2.808505,-0.661603 3.081501,-2.095862 l 7.257017,-38.129753 c 0.272996,-1.43426 -0.661603,-2.808504 -2.095862,-3.081498 L 20.20298,7.403169 C 20.023698,7.369042 19.845529,7.353322 19.670151,7.355557 Z m 12.16797,12.9236574 c 4.856432,0 8.381434,2.309604 8.381434,6.588451 0,2.817202 -1.497007,4.52712 -3.760199,5.859103 -1.779905,1.060871 -2.64085,2.062805 -2.64085,4.149185 v 0.483193 h -5.021364 v -0.483193 c 0.01179,-3.995948 1.025968,-5.234184 2.900174,-6.436504 1.473432,-0.942997 2.593241,-1.862234 2.593241,-3.300304 0,-1.402707 -1.108113,-2.333916 -2.499033,-2.333916 -1.402708,0 -2.652086,0.990238 -2.687448,2.628695 H 23.68157 c 0.07072,-4.950732 3.724468,-7.15471 8.156551,-7.15471 z m -0.435583,18.717928 c 1.614881,0 3.040703,1.356018 3.064278,3.029837 -0.02357,1.697394 -1.449397,3.064278 -3.064278,3.064278 -1.697394,0 -3.088866,-1.366884 -3.065292,-3.064278 -0.02357,-1.673819 1.367898,-3.029837 3.065292,-3.029837 z" /><path
       id="rect2515"
       style="fill:#ef5b5b;fill-opacity:1;stroke-width:1.0373;stroke-linecap:round;stroke-linejoin:round"
       d="m 46.570968,11.096511 c -0.17479,-0.01453 -0.353622,-0.01235 -0.534856,0.0091 L 7.4920504,15.672163 c -1.4498703,0.171766 -2.4793448,1.477655 -2.3075789,2.927525 l 4.5665346,38.54406 c 0.1717659,1.44987 1.4776549,2.479345 2.9275249,2.307579 l 38.544061,-4.566535 c 1.44987,-0.171766 2.479345,-1.477652 2.307579,-2.927522 L 48.963638,13.413206 C 48.813343,12.14457 47.794499,11.19821 46.570968,11.096511 Z m -14.732847,9.182705 c 4.856432,0 8.381434,2.309604 8.381434,6.588451 0,2.817202 -1.497007,4.52712 -3.760199,5.859103 -1.779905,1.060871 -2.64085,2.062805 -2.64085,4.149185 v 0.483193 h -5.021364 v -0.483193 c 0.01179,-3.995948 1.025968,-5.234184 2.900174,-6.436504 1.473432,-0.942997 2.593241,-1.862234 2.593241,-3.300304 0,-1.402707 -1.108113,-2.333916 -2.499033,-2.333916 -1.402708,0 -2.652086,0.990238 -2.687448,2.628695 H 23.68157 c 0.07072,-4.950732 3.724468,-7.15471 8.156551,-7.15471 z m -0.435583,18.717928 c 1.614881,0 3.040703,1.356018 3.064278,3.029837 -0.02357,1.697394 -1.449397,3.064278 -3.064278,3.064278 -1.697394,0 -3.088866,-1.366884 -3.065292,-3.064278 -0.02357,-1.673819 1.367898,-3.029837 3.065292,-3.029837 z" /><path
       id="rect2433"
       style="fill:#ffba49;fill-opacity:1;stroke-width:1.0373;stroke-linecap:round;stroke-linejoin:round"
       d="m 12.543804,10.642694 c -1.460009,0 -2.6357855,1.175776 -2.6357855,2.635785 v 38.813517 c 0,1.46001 1.1757765,2.635785 2.6357855,2.635785 h 38.813517 c 1.46001,0 2.635785,-1.175775 2.635785,-2.635785 V 13.278479 c 0,-1.460009 -1.175775,-2.635785 -2.635785,-2.635785 z m 19.294317,9.636522 c 4.856432,0 8.381434,2.309604 8.381434,6.588451 0,2.817202 -1.497007,4.52712 -3.760199,5.859103 -1.779905,1.060871 -2.64085,2.062805 -2.64085,4.149185 v 0.483193 h -5.021364 v -0.483193 c 0.01179,-3.995948 1.025968,-5.234184 2.900174,-6.436504 1.473432,-0.942997 2.593241,-1.862234 2.593241,-3.300304 0,-1.402707 -1.108113,-2.333916 -2.499033,-2.333916 -1.402708,0 -2.652086,0.990238 -2.687448,2.628695 H 23.68157 c 0.07072,-4.950732 3.724468,-7.15471 8.156551,-7.15471 z m -0.435583,18.717928 c 1.614881,0 3.040703,1.356018 3.064278,3.029837 -0.02357,1.697394 -1.449397,3.064278 -3.064278,3.064278 -1.697394,0 -3.088866,-1.366884 -3.065292,-3.064278 -0.02357,-1.673819 1.367898,-3.029837 3.065292,-3.029837 z" /></g></g></svg>
