<?xml version="1.0" encoding="UTF-8" standalone="no"?>
<!-- Generator: Adobe Illustrator 18.1.1, SVG Export Plug-In . SVG Version: 6.00 Build 0)  -->

<svg
   version="1.1"
   x="0px"
   y="0px"
   viewBox="0 0 256 256"
   enable-background="new 0 0 512 512"
   xml:space="preserve"
   id="svg26"
   sodipodi:docname="party-popper.svg"
   width="256"
   height="256"
   inkscape:version="1.1.2 (0a00cf5339, 2022-02-04)"
   xmlns:inkscape="http://www.inkscape.org/namespaces/inkscape"
   xmlns:sodipodi="http://sodipodi.sourceforge.net/DTD/sodipodi-0.dtd"
   xmlns="http://www.w3.org/2000/svg"
   xmlns:svg="http://www.w3.org/2000/svg"><defs
   id="defs30" /><sodipodi:namedview
   id="namedview28"
   pagecolor="#ffffff"
   bordercolor="#666666"
   borderopacity="1.0"
   inkscape:pageshadow="2"
   inkscape:pageopacity="0.0"
   inkscape:pagecheckerboard="0"
   showgrid="false"
   inkscape:zoom="0.97035431"
   inkscape:cx="193.22839"
   inkscape:cy="270.51974"
   inkscape:window-width="1600"
   inkscape:window-height="839"
   inkscape:window-x="0"
   inkscape:window-y="30"
   inkscape:window-maximized="1"
   inkscape:current-layer="svg26" />







<g
   id="g863"
   transform="matrix(0.48662151,0,0,0.48662151,4.2935239,4.4132307)"><g
     id="Layer_2">
	<path
   fill="#ffb636"
   d="M 378.553,355.648 45.117,500.733 C 23.382,509.383 1.782,487.969 10.243,466.161 L 155.952,127.477"
   id="path2" />
</g><g
     id="Layer_3">
	<path
   fill="#ffd469"
   d="m 10.243,466.161 11.58,-26.916 c 0.993,-1.514 1.983,-3.03 2.977,-4.543 C 82.397,346.958 140.838,259.75 201.275,173.934 l 67.765,69.46 C 217.91,278.496 51.89,450.063 17.115,495.571 9.545,488.608 5.866,477.443 10.243,466.161 Z"
   id="path5" />
</g><g
     id="Layer_4">
	<path
   fill="#a06c33"
   d="m 304.382,204.434 c 61.854,61.854 95.685,128.308 75.564,148.43 -20.121,20.121 -86.575,-13.71 -148.43,-75.564 -61.855,-61.854 -95.685,-128.308 -75.564,-148.43 20.121,-20.122 86.575,13.709 148.43,75.564 z"
   id="path8" />
</g><g
     id="Layer_5">
	<path
   fill="#f7f9aa"
   d="m 155.601,327.572 c 0,6.012 -4.874,10.885 -10.885,10.885 -6.011,0 -10.885,-4.873 -10.885,-10.885 0,-6.012 4.873,-10.885 10.885,-10.885 6.012,0 10.885,4.873 10.885,10.885 z"
   id="path11" />
</g><g
     id="Layer_6">
	<path
   fill="#ffb636"
   d="m 501.986,213.16 c 0,8.628 -6.994,15.622 -15.622,15.622 -8.628,0 -15.622,-6.994 -15.622,-15.622 0,-8.628 6.994,-15.622 15.622,-15.622 8.628,0 15.622,6.994 15.622,15.622 z M 397.663,421.182 c -8.628,0 -15.622,6.994 -15.622,15.622 0,8.628 6.994,15.622 15.622,15.622 8.628,0 15.622,-6.994 15.622,-15.622 0,-8.628 -6.995,-15.622 -15.622,-15.622 z"
   id="path14" />
</g><g
     id="Layer_7">
	<path
   fill="#bea4ff"
   d="m 355.949,79.523 c -1.34,9.065 -7.197,17.072 -16.07,21.968 -6.126,3.38 -13.33,5.137 -20.807,5.137 -2.354,0 -4.734,-0.174 -7.117,-0.526 -5.288,-0.782 -10.581,0.016 -14.52,2.189 -1.766,0.974 -4.8,3.105 -5.293,6.438 -0.492,3.333 1.796,6.251 3.203,7.694 3.058,3.135 7.725,5.381 12.849,6.22 0.141,0.015 0.281,0.02 0.422,0.041 21.619,3.196 37.061,20.32 34.421,38.173 -1.34,9.066 -7.197,17.073 -16.071,21.969 -6.126,3.38 -13.329,5.137 -20.806,5.137 -2.354,0 -4.734,-0.174 -7.117,-0.526 -5.287,-0.783 -10.582,0.015 -14.521,2.189 -1.766,0.974 -4.8,3.105 -5.293,6.438 -0.79,5.349 5.778,12.411 16.47,13.991 5.817,0.86 9.836,6.273 8.976,12.091 -0.782,5.29 -5.328,9.092 -10.52,9.092 -0.519,0 -1.043,-0.038 -1.571,-0.116 -21.619,-3.196 -37.06,-20.321 -34.421,-38.173 1.34,-9.066 7.197,-17.073 16.071,-21.969 8.055,-4.444 17.972,-6.082 27.924,-4.611 5.288,0.781 10.58,-0.016 14.52,-2.189 1.766,-0.974 4.8,-3.105 5.293,-6.438 0.777,-5.262 -5.577,-12.171 -15.963,-13.898 -0.17,-0.017 -0.341,-0.031 -0.512,-0.056 -9.951,-1.472 -18.971,-5.908 -25.395,-12.493 -7.077,-7.254 -10.367,-16.614 -9.026,-25.681 1.34,-9.065 7.197,-17.072 16.07,-21.968 8.055,-4.444 17.972,-6.082 27.924,-4.611 5.286,0.78 10.581,-0.016 14.52,-2.189 1.766,-0.974 4.8,-3.105 5.293,-6.438 0.492,-3.333 -1.796,-6.251 -3.203,-7.694 -3.142,-3.22 -7.977,-5.516 -13.267,-6.297 -5.817,-0.86 -9.836,-6.273 -8.976,-12.091 0.859,-5.818 6.274,-9.832 12.091,-8.977 9.951,1.472 18.971,5.908 25.395,12.493 7.078,7.255 10.368,16.615 9.027,25.681 z"
   id="path17" />
</g><g
     id="Layer_8">
	<path
   fill="#ff6e83"
   d="m 81.731,159.689 c 0,9.777 -7.926,17.703 -17.703,17.703 -9.777,0 -17.703,-7.926 -17.703,-17.703 0,-9.777 7.926,-17.703 17.703,-17.703 9.777,0 17.703,7.925 17.703,17.703 z m 316.445,-20.453 c -11.296,0 -20.452,9.157 -20.452,20.452 0,11.295 9.157,20.452 20.452,20.452 11.295,0 20.452,-9.157 20.452,-20.452 0,-11.295 -9.156,-20.452 -20.452,-20.452 z M 215.529,395.899 c -11.296,0 -20.452,9.157 -20.452,20.452 0,11.295 9.157,20.452 20.452,20.452 11.296,0 20.452,-9.157 20.452,-20.452 0,-11.295 -9.156,-20.452 -20.452,-20.452 z m 271.303,-93.646 c 3.093,-5.989 0.745,-13.352 -5.244,-16.445 -2.388,-1.232 -5.238,-2.868 -8.538,-4.761 -28.993,-16.633 -89.319,-51.242 -160.352,6.109 -5.245,4.234 -6.063,11.919 -1.829,17.163 4.233,5.245 11.917,6.065 17.163,1.829 58.035,-46.856 104.882,-19.985 132.871,-3.928 3.403,1.952 6.617,3.796 9.483,5.276 1.791,0.925 3.705,1.363 5.591,1.363 4.42,0 8.687,-2.408 10.855,-6.606 z"
   id="path20" />
</g><g
     id="Layer_9">
	<path
   fill="#59cafc"
   d="m 434.834,62.776 c 0,6.012 -4.874,10.885 -10.885,10.885 -6.012,0 -10.885,-4.873 -10.885,-10.885 0,-6.012 4.873,-10.885 10.885,-10.885 6.012,-10e-4 10.885,4.873 10.885,10.885 z M 46.324,11.894 c -6.012,0 -10.885,4.873 -10.885,10.885 0,6.012 4.873,10.885 10.885,10.885 6.012,0 10.886,-4.873 10.886,-10.885 0,-6.012 -4.874,-10.885 -10.886,-10.885 z m 170.681,142.057 c 1.231,-2.414 2.749,-5.163 4.356,-8.073 8.154,-14.771 19.32,-34.999 19.992,-58.559 0.807,-28.304 -13.934,-54.002 -43.812,-76.38 -5.187,-3.885 -12.539,-2.828 -16.421,2.357 -3.884,5.186 -2.829,12.538 2.357,16.421 23.75,17.788 35.01,36.411 34.425,56.933 -0.51,17.872 -9.697,34.516 -17.08,47.889 -1.701,3.083 -3.309,5.994 -4.713,8.747 -2.945,5.771 -0.654,12.836 5.116,15.781 1.708,0.872 3.529,1.285 5.323,1.285 4.267,0 8.384,-2.338 10.457,-6.401 z"
   id="path23" />
</g></g>
</svg>
